<svg id="Layer_1" data-name="Layer 1" xmlns="http://www.w3.org/2000/svg" viewBox="0 0 80.41 12.58"><defs><style>.cls-1{fill:#231f20;}.cls-2{fill:#ef3b39;stroke:#231f20;stroke-miterlimit:10;stroke-width:0.25px;}</style></defs><title>note-edit-c</title><path class="cls-1" d="M4,17.35V5.21H5.74l3.89,6.14a35.06,35.06,0,0,1,2.18,4l0,0c-.14-1.62-.18-3.1-.18-5V5.21h1.48V17.35H11.55L7.7,11.19a37.87,37.87,0,0,1-2.27-4l0,0c.09,1.53.12,3,.12,5v5.19Z" transform="translate(-4.03 -5)"/><path class="cls-1" d="M23.7,12.92a4.26,4.26,0,0,1-4.34,4.63,4.14,4.14,0,0,1-4.17-4.49c0-2.91,1.9-4.62,4.32-4.62S23.7,10.25,23.7,12.92ZM16.79,13c0,1.91,1.1,3.35,2.65,3.35s2.64-1.42,2.64-3.39c0-1.47-.74-3.35-2.61-3.35S16.79,11.35,16.79,13Z" transform="translate(-4.03 -5)"/><path class="cls-1" d="M27.61,6.13v2.5h2.27V9.84H27.61v4.7c0,1.08.3,1.69,1.18,1.69a3.21,3.21,0,0,0,.92-.11l.08,1.19a3.84,3.84,0,0,1-1.41.22,2.2,2.2,0,0,1-1.71-.67,3.21,3.21,0,0,1-.61-2.27V9.84H24.71V8.63h1.35V6.55Z" transform="translate(-4.03 -5)"/><path class="cls-1" d="M32.43,13.28a2.79,2.79,0,0,0,3,3,5.59,5.59,0,0,0,2.41-.45L38.1,17a7.09,7.09,0,0,1-2.9.54,4,4,0,0,1-4.28-4.39c0-2.63,1.55-4.7,4.09-4.7,2.84,0,3.6,2.5,3.6,4.1a5.31,5.31,0,0,1-.06.74Zm4.65-1.13a2.27,2.27,0,0,0-2.2-2.58,2.63,2.63,0,0,0-2.43,2.58Z" transform="translate(-4.03 -5)"/><path class="cls-1" d="M40.35,15.73a4.13,4.13,0,0,0,2.09.63c1.15,0,1.69-.58,1.69-1.3s-.45-1.17-1.62-1.6c-1.57-.56-2.3-1.42-2.3-2.47,0-1.4,1.13-2.55,3-2.55A4.35,4.35,0,0,1,45.36,9L45,10.13a3.33,3.33,0,0,0-1.78-.51c-.94,0-1.46.55-1.46,1.19s.52,1,1.66,1.48c1.51.58,2.28,1.33,2.28,2.63,0,1.53-1.19,2.61-3.26,2.61A5.12,5.12,0,0,1,40,16.94Z" transform="translate(-4.03 -5)"/><path class="cls-2" d="M57.85,11.66H53.13V16h5.26v1.31H51.56V5.21h6.56V6.53h-5v3.83h4.72Z" transform="translate(-4.03 -5)"/><path class="cls-2" d="M60.42,5.38a21.55,21.55,0,0,1,3.33-.26,7,7,0,0,1,4.92,1.52A5.58,5.58,0,0,1,70.38,11a6.45,6.45,0,0,1-1.75,4.72,7.45,7.45,0,0,1-5.37,1.75,25.1,25.1,0,0,1-2.84-.15ZM62,16.11a10,10,0,0,0,1.58.09c3.35,0,5.17-1.88,5.17-5.15,0-2.87-1.61-4.68-4.92-4.68A8.83,8.83,0,0,0,62,6.53Z" transform="translate(-4.03 -5)"/><path class="cls-2" d="M74,5.21V17.35H72.41V5.21Z" transform="translate(-4.03 -5)"/><path class="cls-2" d="M79,6.55H75.32V5.21h9V6.55H80.6v10.8H79Z" transform="translate(-4.03 -5)"/></svg>